<?xml version="1.0" ?><svg data-name="Слой 1" id="Слой_1" viewBox="0 0 128 128" xmlns="http://www.w3.org/2000/svg"><title/><path d="M18,36A18,18,0,1,1,36,18,18,18,0,0,1,18,36ZM18,4A14,14,0,1,0,32,18,14,14,0,0,0,18,4Z"/><path d="M18,82A18,18,0,1,1,36,64,18,18,0,0,1,18,82Zm0-32A14,14,0,1,0,32,64,14,14,0,0,0,18,50Z"/><path d="M18,128a18,18,0,1,1,18-18A18,18,0,0,1,18,128Zm0-32a14,14,0,1,0,14,14A14,14,0,0,0,18,96Z"/><path d="M126,20H46a2,2,0,0,1,0-4h80a2,2,0,0,1,0,4Z"/><path d="M126,66H46a2,2,0,0,1,0-4h80a2,2,0,0,1,0,4Z"/><path d="M126,112H46a2,2,0,0,1,0-4h80a2,2,0,0,1,0,4Z"/></svg>